<svg xmlns="http://www.w3.org/2000/svg" width="28" height="28" fill="none"><rect id="backgroundrect" width="100%" height="100%" x="0" y="0" fill="none" stroke="none" style="" class="" opacity="1"/>

<defs>
<filter id="filter0_dd_4172_4298" x="-12" y="-12" width="88" height="88" filterUnits="userSpaceOnUse" color-interpolation-filters="sRGB">
<feFlood flood-opacity="0" result="BackgroundImageFix"/>
<feColorMatrix in="SourceAlpha" type="matrix" values="0 0 0 0 0 0 0 0 0 0 0 0 0 0 0 0 0 0 127 0" result="hardAlpha"/>
<feOffset dy="4"/>
<feGaussianBlur stdDeviation="8"/>
<feColorMatrix type="matrix" values="0 0 0 0 0.14902 0 0 0 0 0.196078 0 0 0 0 0.219608 0 0 0 0.08 0"/>
<feBlend mode="multiply" in2="BackgroundImageFix" result="effect1_dropShadow_4172_4298"/>
<feColorMatrix in="SourceAlpha" type="matrix" values="0 0 0 0 0 0 0 0 0 0 0 0 0 0 0 0 0 0 127 0" result="hardAlpha"/>
<feOffset dy="4"/>
<feGaussianBlur stdDeviation="3"/>
<feColorMatrix type="matrix" values="0 0 0 0 0.14902 0 0 0 0 0.196078 0 0 0 0 0.219608 0 0 0 0.16 0"/>
<feBlend mode="multiply" in2="effect1_dropShadow_4172_4298" result="effect2_dropShadow_4172_4298"/>
<feBlend mode="normal" in="SourceGraphic" in2="effect2_dropShadow_4172_4298" result="shape"/>
</filter>
</defs>
<g class="currentLayer" style=""><title>Layer 1</title><g filter="url(#filter0_dd_4172_4298)" id="svg_1" class="" fill="none">
<path d="M25.607061125182163,18.889821906685828 C24.829968909966933,20.78114309409261 23.614644495691845,22.44771106818318 22.06717793890813,23.743880718290804 C20.519711382124406,25.040050368398425 18.687302288583872,25.926402333498004 16.73021992957319,26.325355001002553 C14.773050325450221,26.724307668507098 12.75079586755487,26.623738911449905 10.840127908285353,26.032448496073485 C8.929459949015833,25.441158080697058 7.188570978273184,24.37719450715184 5.769790962125198,22.933494082182648 C4.350923700864915,21.489793657213454 3.297351724785523,19.710355212032795 2.70111862735868,17.75079093948007 C2.104798284819537,15.791226666927336 1.9840510494026895,13.711159472972156 2.349259089471282,11.69242126211524 C2.714554374652172,9.673683051258328 3.5547248060569903,7.777782393664122 4.796309999132992,6.170388357877731 C6.037982437321297,4.563084115624427 7.6432925035568715,3.2932239707112307 9.471950057268703,2.4719723170995724 " stroke="#FFEAA7" stroke-width="3" stroke-linecap="round" stroke-linejoin="round" id="svg_2" fill="none" fill-opacity="1"/>
<path d="M26.571904822057125,13.999666094779968 C26.571904822057125,12.348811988979579 26.255990270435433,10.714120719134808 25.642220905437213,9.188887766122818 C25.028364295326696,7.663744606643915 24.128692697336408,6.277871216982603 22.99441899238376,5.110555286854506 C21.86023253254341,3.9432393567264077 20.513778714488318,3.017288443535566 19.031833237038455,2.385501144737005 C17.549975004700876,1.7537138459384445 15.961677735362912,1.4285714626312256 14.357589100699473,1.4285714626312256 V13.999666094779968 H26.571904822057125 z" stroke="#FFEAA7" stroke-width="3" stroke-linecap="round" stroke-linejoin="round" id="svg_3" fill="none" fill-opacity="1"/>
</g></g></svg>